<svg
        xmlns="http://www.w3.org/2000/svg"
        version="1.1"
        viewBox="0 0 160.94727 64.779299"
        height="18.282158mm"
        width="45.422897mm">
    <g
            transform="translate(-234.66406,-168.5625)"
            id="layer1">
        <rect
                y="183.58253"
                x="240.5"
                height="34.111126"
                width="105.06001"
                style="fill:#ffd300;fill-opacity:1;stroke:none;stroke-width:1;stroke-linejoin:miter;stroke-miterlimit:4;stroke-dasharray:none;stroke-opacity:1"></rect>
        <path
                d="m 275.8125,169.0625 0,9.59961 -40.64844,0 0,43.64258 40.64844,0 0,10.53711 119.29883,0 0,-63.7793 -119.29883,0 z m 51.93359,15.22852 c 8.91804,-6.4e-4 16.14799,7.22844 16.14844,16.14648 6.4e-4,8.9188 -7.22964,16.14908 -16.14844,16.14844 -8.91804,-4.5e-4 -16.14712,-7.2304 -16.14648,-16.14844 4.5e-4,-8.91727 7.22921,-16.14603 16.14648,-16.14648 z m -87.24609,0.98242 26.82617,0 0,5.98242 -26.82617,0 0,-5.98242 z m 136.125,6.48242 c 4.57881,4.6e-4 8.29056,3.7122 8.29102,8.29102 6.1e-4,4.57956 -3.71145,8.2925 -8.29102,8.29296 -4.58033,6.2e-4 -8.29358,-3.71264 -8.29297,-8.29296 4.6e-4,-4.57958 3.71339,-8.29164 8.29297,-8.29102 z m -133.51562,0.5 24.21679,0 0,7.72852 -24.21679,0 0,-7.72852 z m 0,8.72852 24.21679,0 0,6.85546 -24.21679,0 0,-6.85546 z m -2.60938,7.85546 26.82617,0 0,6.85547 -26.82617,0 0,-6.85547 z"
                style="fill:#000000;fill-opacity:1;stroke:#000000;stroke-width:1;stroke-linejoin:round;stroke-miterlimit:4;stroke-dasharray:none;stroke-opacity:1"></path>
        <path
                d="m 325.99616,206.99028 -2.22549,-2.22734 5.38646,-5.38399 c 1.72339,1.28823 4.17199,1.1653 5.74048,-0.40075 1.71847,-1.72089 1.71847,-4.51125 0,-6.23217 -1.72092,-1.72089 -4.51126,-1.72089 -6.23154,0 -1.56727,1.56849 -1.69019,4.01711 -0.40011,5.74292 l -8.9721,8.97335 c -0.23108,0.2311 -0.2194,0.61462 0.0271,0.86046 0.24585,0.24584 0.63184,0.26059 0.86293,0.0295 l 0.91702,-0.91946 1.33494,1.33739 c 0.24586,0.24585 0.64412,0.24585 0.88997,0 0.24647,-0.24585 0.24647,-0.64411 0,-0.88995 l -1.33495,-1.33739 0.88995,-0.88997 2.2255,2.22736 c 0.24584,0.24584 0.6441,0.24584 0.88995,0 0.24585,-0.24585 0.24577,-0.64411 -8e-5,-0.88996 z m 3.55924,-13.35425 c 1.22677,-1.2243 3.22548,-1.2243 4.45225,0 1.22678,1.22922 1.22678,3.22548 0,4.45227 -1.22677,1.22677 -3.22304,1.22677 -4.45225,0 -1.22615,-1.22679 -1.22615,-3.22305 0,-4.45227 z"
                style="fill:#000000;fill-opacity:1;fill-rule:evenodd;stroke:none;stroke-width:0.14595878px;stroke-linecap:butt;stroke-linejoin:miter;stroke-opacity:1"></path>
    </g>
</svg>